/* XPM */
static char *result[] = {
/* columns rows colors chars-per-pixel */
"32 32 6 1 ",
"  c black",
". c #4F2C14",
"X c #885B39",
"o c #871E51",
"O c #D78244",
"+ c None",
/* pixels */
"++++++++++++++++++++++++++++++++",
"++++++++++++++++++++++++++++++++",
"++++++++++++++++++++++++++++++++",
"++++++++++++++++++++++++++++++++",
"++++++++++++++++++++++++++++++++",
"++++++++++++    ++++++++++++++++",
"++++++++++++ .. ++++++++++++++++",
"+++++        .X o+++++++++++++++",
"+++++ XXOOOOOOX  o++++++++++++++",
"++++ XXXOO  OOOO o++++++++++++++",
"++++ XXOOOOOOOOO o++++++++++++++",
"++++ XOOOOOOOOOO  oooooo++++++++",
"++++ XOOOOOOOOOOO       o+++++++",
"++++      OOOOOOOOOOOOO  o++++++",
"++++++++++  OOOOOOOOOOOO o++++++",
"+++++++++++ OOOOOOOXXOOO o++++++",
"+++++++++++ OOOOOOOOOOOO o++++++",
"+++++++++++ OOOOOXXOOXXO o++++++",
"+++++++++++ OOOOOOOOOOOO o++++++",
"++++++++++++.OOOOOOOOOOO o++++++",
"+++++++++++ ..O ++++ OOO  o+++++",
"++++++++++ ... ++++++...  o+++++",
"++++++++++ ...+++++++ ..  o+++++",
"+++++++++++ .. +++++ ... o++++++",
"++++++++++++   +++++ ..  o++++++",
"+++++++++++++   ++++    o+++++++",
"++++++++++++++oo+++++ooo++++++++",
"++++++++++++++++++++++++++++++++",
"++++++++++++++++++++++++++++++++",
"++++++++++++++++++++++++++++++++",
"++++++++++++++++++++++++++++++++",
"++++++++++++++++++++++++++++++++"
};
