/* XPM */
static char *result[] = {
/* columns rows colors chars-per-pixel */
"32 32 6 1 ",
"  c black",
". c #4F2C14",
"X c #885B39",
"o c #871E51",
"O c #D78244",
"+ c None",
/* pixels */
"++++++++++++++++++++++++++++++++",
"++++++++++++++++++++++++++++++++",
"++++++++++++++++++++++++++++++++",
"++++++++++++++++++++++++++++++++",
"++++++++++++++++++++++++++++++++",
"++++++++++++++++++++++++++++++++",
"+++++++++++++++++  +++++++++++++",
"+++++++++++++++++..+++++++++++++",
"+++++++++++++++++X.        o++++",
"++++++++++++++++ XOOOOOOXX  ++++",
"+++++++++++++++ OOOO  OOXXX ++++",
"+++++++++oo++o  OOOOOOOOOXX ++++",
"+++++++o       OOOOOOOOOOOX ++++",
"++++++o  OOOOOOOOOOOOOOOOOX ++++",
"++++++o OOOOOOOOOOOO        ++++",
"++++++o OOOXXOOOOOOO ooo++++++++",
"++++++o OOOOOOOOOOOO o++++++++++",
"++++++o OXXOOXXOOOOO o++++++++++",
"+++++o  OOOOOOOOOOO  o++++++++++",
"+++++o .OOOOOOOOOO.  o++++++++++",
"+++++o ..O       ..  o++++++++++",
"+++++o  ..  ++++ ..  o++++++++++",
"++++++o  ..  +++ ..  +++++++++++",
"+++++++o    ++++ .. ++++++++++++",
"++++++++oo  ++++    ++++++++++++",
"++++++++++++++++++++++++++++++++",
"++++++++++++++++++++++++++++++++",
"++++++++++++++++++++++++++++++++",
"++++++++++++++++++++++++++++++++",
"++++++++++++++++++++++++++++++++",
"++++++++++++++++++++++++++++++++",
"++++++++++++++++++++++++++++++++"
};
