/* XPM */
static char *result[] = {
/* columns rows colors chars-per-pixel */
"32 32 6 1 ",
"  c black",
". c #4F2C14",
"X c #885B39",
"o c #871E51",
"O c #D78244",
"+ c None",
/* pixels */
"++++++++++++++++++++++++++++++++",
"++++++++++++++++++++++++++++++++",
"++++++++++++++++++++++++++++++++",
"+++++++++++++oooo+++++++++++++++",
"+++++++++++++    +++++++++++++++",
"++++++++++ooo .. +++++++++++++++",
"++++++        .X o++++++++++++++",
"+++++  XXOOOOOOX  ++++++++++++++",
"+++++ XXXOO  OOOO ++++++++++++++",
"+++++ XXOOOOOOOOO ++++++++++++++",
"+++++ XOOOOOOOOOO ++++++++++++++",
"+++++ XOOOOOOOOOO oooooo++++++++",
"++++++     OOOOOO       o+++++++",
"+++++++++o  OOOOOOOOOOO  o++++++",
"++++++++++o OOOOOOOOOOOO o++++++",
"++++++++++o OOOOOOOXXOOO o++++++",
"++++++++++o OOOOOOOOOOOO o++++++",
"+++++++++++ OOOOOXXOOXXO o++++++",
"+++++++++++ .OOOOOOOOOO  o++++++",
"+++++++++++ ..OOOOOOOOOO  o+++++",
"+++++++++++ ...      ...   o++++",
"+++++++++++  ... ooo ...   o++++",
"+++++++++++   .. oo  ..    o++++",
"+++++++++++      oo ..     o++++",
"+++++++++++   ooooo    o  o+++++",
"+++++++++++++o+++oooooo+oo++++++",
"++++++++++++++++++++++++++++++++",
"++++++++++++++++++++++++++++++++",
"++++++++++++++++++++++++++++++++",
"++++++++++++++++++++++++++++++++",
"++++++++++++++++++++++++++++++++",
"++++++++++++++++++++++++++++++++"
};
