/* XPM */
static char *result[] = {
/* columns rows colors chars-per-pixel */
"32 32 10 1 ",
"  c #1C366C",
". c #C3884C",
"X c #FE72B8",
"o c #5294E2",
"O c #6F94E6",
"+ c #56BCF9",
"@ c #EEE697",
"# c #F1CFB7",
"$ c white",
"% c None",
/* pixels */
"%%%%%%%%oooooooooooooo%%%%%%%%%%",
"%%%%%%%%oooooooooooooo%%%%%%%%%%",
"%%%%%%oooooooooooooooooo%%%%%%%%",
"%%%%%%oooooooooooooooooo%%%%%%%%",
"%%%%%%oooooooooooooooooo%%%%%%%%",
"%%%%%%oooooooooooooooooo%%%%%%%%",
"%%%%oooooooooooooooooooooo%%%%%%",
"%%%%oooooooooooooooooooooo%%%%%%",
"%%%%oooooo##oooooo##oooooo%%%%%%",
"%%%%oooooo##oooooo##oooooo%%%%%%",
"%%%%%%oo###..####..###oo%%%%%%%%",
"%%%%%%oo###..####..###oo%%%%%%%%",
"%%%%%%oo###..####..###oo%%%%%%%%",
"%%%%%%oo###..####..###oo%%%%%%%%",
"%%%%oooooo##########oooooo%%%%%%",
"%%%%oooooo##########oooooo%%%%%%",
"%%%%oo@@++XX    XXXX++++$$%%%%%%",
"%%%%oo@@++XX    XXXX++++$$%%%%%%",
"%%%%++@@++++      ++++@@$$%%%%%%",
"%%%%++@@++++      ++++@@$$%%%%%%",
"%%##++$$$$++      ++++@@++++%%%%",
"%%##++$$$$++      ++++@@++++%%%%",
"%%##++++++++      ++$$$$++####%%",
"%%##++++++++      ++$$$$++####%%",
"%%%%%%                $$$$####%%",
"%%%%%%                $$$$####%%",
"%%%%OOOOOOOOOOOOOOOOOOOOOO%%%%%%",
"%%%%OOOOOOOOOOOOOOOOOOOOOO%%%%%%",
"%%%%%%++$$$$++%%%%OOOOOO%%%%%%%%",
"%%%%%%++$$$$++%%%%OOOOOO%%%%%%%%",
"%%%%          %%%%%%%%%%%%%%%%%%",
"%%%%          %%%%%%%%%%%%%%%%%%"
};
