/* XPM */
static char *result[] = {
/* columns rows colors chars-per-pixel */
"32 32 10 1 ",
"  c #1C366C",
". c #C3884C",
"X c #FE72B8",
"o c #5294E2",
"O c #6F94E6",
"+ c #56BCF9",
"@ c #EEE697",
"# c #F1CFB7",
"$ c white",
"% c None",
/* pixels */
"%%%%%%oooooooooooooooooo%%%%%%%%",
"%%%%%%oooooooooooooooooo%%%%%%%%",
"%%%%oooooooooooooooooooooo%%%%%%",
"%%%%oooooooooooooooooooooo%%%%%%",
"%%%%oooooooooooooooooooooo%%%%%%",
"%%%%oooooooooooooooooooooo%%%%%%",
"%%%%oooooooooooooooooooooooo%%%%",
"%%%%oooooooooooooooooooooooo%%%%",
"%%%%%%oooooooooooooooo##oooo%%%%",
"%%%%%%oooooooooooooooo##oooo%%%%",
"%%%%$$$$oooooooooooooo..##%%%%%%",
"%%%%$$$$oooooooooooooo..##%%%%%%",
"%%%%$$$$++++++oooo####..##%%%%%%",
"%%%%$$$$++++++oooo####..##%%%%%%",
"%%%%$$$$$$$$$$++++++####%%%%%%%%",
"%%%%$$$$$$$$$$++++++####%%%%%%%%",
"%%%%%%%%++++$$@@++++XX%%%%%%%%%%",
"%%%%%%%%++++$$@@++++XX%%%%%%%%%%",
"%%%%%%%%$$$$++++@@++    %%%%%%%%",
"%%%%%%%%$$$$++++@@++    %%%%%%%%",
"%%%%%%$$$$++++$$++$$++  %%%%%%%%",
"%%%%%%$$$$++++$$++$$++  %%%%%%%%",
"%%%%%%$$$$####++$$++++  ##%%%%%%",
"%%%%%%$$$$####++$$++++  ##%%%%%%",
"%%%%%%OO++####          ##%%%%%%",
"%%%%%%OO++####          ##%%%%%%",
"%%%%%%OOOOOOOOOOOOOOOOOOOO%%%%%%",
"%%%%%%OOOOOOOOOOOOOOOOOOOO%%%%%%",
"%%%%%%%%OOOOOO%%++++++%%%%%%%%%%",
"%%%%%%%%OOOOOO%%++++++%%%%%%%%%%",
"%%%%%%%%OOOOOO%%        %%%%%%%%",
"%%%%%%%%OOOOOO%%        %%%%%%%%"
};
