/* XPM */
static char *result[] = {
/* columns rows colors chars-per-pixel */
"32 32 90 1 ",
"  c #020101",
". c #0B0101",
"X c #030902",
"o c #010008",
"O c #0E0509",
"+ c #000A09",
"@ c #0B0B0C",
"# c #120101",
"$ c #100B11",
"% c #1C161A",
"& c #191919",
"* c #6D6D6D",
"= c #6E756E",
"- c #78706E",
"; c #746F75",
": c #7A6F75",
"> c #6F777A",
", c #6E7C7D",
"< c #767676",
"1 c #737B74",
"2 c #7C7A76",
"3 c #747C7C",
"4 c #7C7C7C",
"5 c #8B7E6C",
"6 c #857C7D",
"7 c #7D8474",
"8 c #77837F",
"9 c #7C827B",
"0 c #8E8075",
"q c #82827D",
"w c #868A7B",
"e c #747B81",
"r c #7A7B83",
"t c #837B83",
"y c #897E87",
"u c #778284",
"i c #7A8284",
"p c #7C858B",
"a c #7C8A8B",
"s c #838382",
"d c #8C8385",
"f c #848B85",
"g c #8E8985",
"h c #89878A",
"j c #82898B",
"k c #8B8B8B",
"l c #8D8E91",
"z c #948A92",
"x c #899490",
"c c #909090",
"v c #A4AFAB",
"b c #A5B0AA",
"n c #AEB5AE",
"m c #B0B5AE",
"M c #ADAEB0",
"N c #B6ACB4",
"B c #B8A9B0",
"V c #AEB3B3",
"C c #ADB5B9",
"Z c #B5B4B4",
"A c #BBB5B3",
"S c #B4BCB5",
"D c #BEBCB4",
"F c #B5B5BA",
"G c #BBB4BA",
"H c #B3BABC",
"J c #BCBCBC",
"K c #C1B7B6",
"L c #C1B2B9",
"P c #C3BCBA",
"I c #B4C1B7",
"U c #B7C2BB",
"Y c #BAC3BB",
"T c #C1C2BC",
"R c #CAC0BF",
"E c #B5BDC1",
"W c #BCBDC2",
"Q c #C3B7C1",
"! c #C3BCC3",
"~ c #C9BEC6",
"^ c #C1BDCC",
"/ c #BCC1C3",
"( c #BFCAC5",
") c #BEC6CA",
"_ c #C2C3C3",
"` c #CBC3C3",
"' c #C5CCC5",
"] c #C4C4CC",
"[ c #C3C8CB",
"{ c #CBCBCB",
/* pixels */
"....##.   ....     X   X   X    ",
"# hyJJ!!1iG!!WiiEEJEipH)C/i>pioo",
".OerJJJEalFFJFepHWEHie)C)Eipeeoo",
"59YEttW)bZYD/JJJ_WJ/J!A_44JG4g %",
"07ISk6HYSYTAAJJPAJJJPKKK6gA`26..",
"g-ISZJJSDTADJJAPP`JPPAPAKKAR. g-",
"1q(UJJ/JYTPPAJPPJJJJPPG`KTJN.o2q",
".X8u]JJJJJJJJJWEJJJJJJJJJ[3j_Vj>",
"#X3pJ^WJJJJJJJJJJJJJJJJJJEie)H,a",
"s4SJ~QWGJJJJJJJJJJJJJJ_JA_Z_r4 @",
"<s'_QJJWJJPJJEJJJJJJJJAF{JJJ4s@ ",
"4hSMGJPJSJJPJJJJJJJJJJ_J44J_JZs4",
"s4']JPWJJJJPJJJJJPJJJJJ_4qZZJ_<s",
"<kVJJJJEUJJJJEJJJJJJJJZJJJ!{<4@ ",
"s4SHJJJJSYJPJEJJJJJJJJ_PF'mJr4 O",
"#X1k~JQJSJJPJJJJJJJJJJF_ZJs4J_1k",
".Xf<~QJJSJJPJJJJJJJJJJ_Z_J44_Js4",
"<kD/GJWEUJJJYEJJJJJJJJ_A_FJ_44  ",
"s4S!QJQJJJJPJEJJJJJJJJZJTJZZss &",
"<x=4JJGJUJJPJJJJJJPJJJ__4<__44  ",
"h<q4JJWWDJJJJJJJJJJJJJJJ<q_Js4  ",
"#XSJ~JJJSJJPJEJJJJJJPJFPW_44FJ<k",
".XS/NJJJIJJJJJJJJJJJWJ!YZZ4sZJs4",
"<7_ZztJJJJJPJJJJJJJJJJZFqk_Js4  ",
"kwnFyyJEJDJPJJJJJJJJJJJJ44AJ4s X",
"4kw9S/r6~L6dnU_m_Z4hJ!s9sri6Xo<k",
"s4q9vYhtJBd2DYZ{YJk4ZYs4qs<2@ k<",
"s423xi oy6669i{ns4 Xz4F_O ic*h  ",
"*4sf3>@$:t6691nFks  =iZA  sc<4  ",
"# 91X+>;OO  sqsz  s4O  @s4<g    ",
". f8Xohs . .qq<1  4s O  i4i4+  @",
". X XX o @O     O@     @  O    O"
};
