/* XPM */
static char *result[] = {
/* columns rows colors chars-per-pixel */
"32 32 6 1 ",
"  c #383E4B",
". c #1D366A",
"X c #55575B",
"o c #CF79A1",
"O c #2EABA8",
"+ c None",
/* pixels */
"++++++++++++++++++++++++++++++++",
"++++++++++++++++++++++++++++++++",
"++++++++++++++++++++++++++++++++",
"++++++++++++++++++++++++++++++++",
"++++++++++++++++++++++++++++++++",
"++++++++++++++++++++++++++++++++",
"+++++++....++++++++++....+++++++",
"+++++++....++++++++++....+++++++",
"+++++++..................+++++++",
"+++++++..................+++++++",
"+++++++..................+++++++",
"+++++++..................+++++++",
"+++++......................+++++",
"+++++......................+++++",
"+++++......XXX....XXX......+++++",
"+++++......XXX....XXX......+++++",
"+++++......XXX....XXX......+++++",
"+++++......XXX....XXX......+++++",
"+++++OO..................OO+++++",
"+++++OO..................OO+++++",
"+++++..OO  ...oooo...  OO..+++++",
"+++++..OO  ...oooo...  OO..+++++",
"+++++......OO      OO......+++++",
"+++++......OO      OO......+++++",
"+++++......................+++++",
"+++++......................+++++",
"+++++......................+++++",
"+++++......................+++++",
"+++......++++++++++++++......+++",
"+++......++++++++++++++......+++",
"++++++++++++++++++++++++++++++++",
"++++++++++++++++++++++++++++++++"
};
