/* XPM */
static char *result[] = {
/* columns rows colors chars-per-pixel */
"32 32 6 1 ",
"  c black",
". c #4F2C14",
"X c #885B39",
"o c #871E51",
"O c #D78244",
"+ c None",
/* pixels */
"++++++++++++++++++++++++++++++++",
"++++++++++++++++++++++++++++++++",
"++++++++++++++++++++++++++++++++",
"+++++++++++++++oooo+++++++++++++",
"+++++++++++++++    +++++++++++++",
"+++++++++++++++ .. ooo++++++++++",
"++++++++++++++o X.        ++++++",
"++++++++++++++  XOOOOOOXX  +++++",
"++++++++++++++ OOOO  OOXXX +++++",
"++++++++++++++ OOOOOOOOOXX +++++",
"++++++++++++++ OOOOOOOOOOX +++++",
"++++++++oooooo OOOOOOOOOOX +++++",
"+++++++o       OOOOOO     ++++++",
"++++++o  OOOOOOOOOOO  o+++++++++",
"++++++o OOOOOOOOOOOO o++++++++++",
"++++++o OOOXXOOOOOOO o++++++++++",
"++++++o OOOOOOOOOOOO o++++++++++",
"++++++o OXXOOXXOOOOO +++++++++++",
"++++++o  OOOOOOOOOO. +++++++++++",
"+++++o  OOOOOOOOOO.. +++++++++++",
"++++o   ...      ... +++++++++++",
"++++o   ... ooo ...  +++++++++++",
"++++o    ..  oo ..   +++++++++++",
"++++o     .. oo      +++++++++++",
"+++++o  o    ooooo   +++++++++++",
"++++++oo+oooooo+++o+++++++++++++",
"++++++++++++++++++++++++++++++++",
"++++++++++++++++++++++++++++++++",
"++++++++++++++++++++++++++++++++",
"++++++++++++++++++++++++++++++++",
"++++++++++++++++++++++++++++++++",
"++++++++++++++++++++++++++++++++"
};
