/* XPM */
static char *result[] = {
/* columns rows colors chars-per-pixel */
"32 32 6 1 ",
"  c black",
". c #4F2C14",
"X c #885B39",
"o c #871E51",
"O c #D78244",
"+ c None",
/* pixels */
"++++++++++++++++++++++++++++++++",
"++++++++++++++++++++++++++++++++",
"++++++++++++++++++++++++++++++++",
"++++++++++++++++++++++++++++++++",
"++++++++++++++++++++++++++++++++",
"+++++++++++++++ooo++++++++++++++",
"+++++++++++++++    o++++++++++++",
"+++++++++++++++ .. oo+++++++++++",
"++++++++++++++o X.        ++++++",
"+++++++++++++o  XOOOOOOXX ++++++",
"++++++++++++o  OOOO  OOXXX +++++",
"+++++++ooooo  OOOOOOOOOOXX +++++",
"++++++       OOOOOOOOOOOOX +++++",
"+++++  OOOOOOOOOOOOOOOOOOX +++++",
"++++o OOOOOOOOOOOOO      +++++++",
"++++o OOOXXOOOOOOO  ++++++++++++",
"++++o OOOOOOOOOOOO +++++++++++++",
"++++o OXXOOXXOOOOO +++++++++++++",
"+++o  OOOOOOOOOOO  o++++++++++++",
"+++o OOOOOOOOOOOO ++++++++++++++",
"+++  .OOOO    OO. ++++++++++++++",
"+++ ...O   o   ..  o++++++++++++",
"+++ ...   oo   ... o++++++++++++",
"+++  ..    o    .. +++++++++++++",
"+++o .. o  o  o  . +++++++++++++",
"++++    +ooooo+o   +++++++++++++",
"++++++++++++++++++++++++++++++++",
"++++++++++++++++++++++++++++++++",
"++++++++++++++++++++++++++++++++",
"++++++++++++++++++++++++++++++++",
"++++++++++++++++++++++++++++++++",
"++++++++++++++++++++++++++++++++"
};
