/* XPM */
static char *result[] = {
/* columns rows colors chars-per-pixel */
"32 32 6 1 ",
"  c black",
". c #4F2C14",
"X c #885B39",
"o c #871E51",
"O c #D78244",
"+ c None",
/* pixels */
"++++++++++++++++++++++++++++++++",
"++++++++++++++++++++++++++++++++",
"++++++++++++++++++++++++++++++++",
"++++++++++++++++++++++++++++++++",
"++++++++++++++++++++++++++++++++",
"++++++++++++++ooo+++++++++++++++",
"++++++++++++o    +++++++++++++++",
"+++++++++++oo .. +++++++++++++++",
"++++++        .X o++++++++++++++",
"++++++ XXOOOOOOX  o+++++++++++++",
"+++++ XXXOO  OOOO  o++++++++++++",
"+++++ XXOOOOOOOOOO  ooooo+++++++",
"+++++ XOOOOOOOOOOOO       ++++++",
"+++++ XOOOOOOOOOOOOOOOOOO  +++++",
"+++++++      OOOOOOOOOOOOO o++++",
"++++++++++++  OOOOOOOXXOOO o++++",
"+++++++++++++ OOOOOOOOOOOO o++++",
"+++++++++++++ OOOOOXXOOXXO o++++",
"++++++++++++o  OOOOOOOOOOO  o+++",
"++++++++++++++ OOOOOOOOOOOO o+++",
"++++++++++++++ .OO    OOOO.  +++",
"++++++++++++o  ..   o   O... +++",
"++++++++++++o ...   oo   ... +++",
"+++++++++++++ ..    o    ..  +++",
"+++++++++++++ .  o  o  o .. o+++",
"+++++++++++++   o+ooooo+    ++++",
"++++++++++++++++++++++++++++++++",
"++++++++++++++++++++++++++++++++",
"++++++++++++++++++++++++++++++++",
"++++++++++++++++++++++++++++++++",
"++++++++++++++++++++++++++++++++",
"++++++++++++++++++++++++++++++++"
};
