/* XPM */
static char *result[] = {
/* columns rows colors chars-per-pixel */
"32 32 141 2 ",
"   c #3A2105",
".  c #3F230B",
"X  c #3F2912",
"o  c #461500",
"O  c #4B1500",
"+  c #431D00",
"@  c #4C1D01",
"#  c #45130C",
"$  c #4C1F0C",
"%  c #521400",
"&  c #541C03",
"*  c #5A1A03",
"=  c #57160A",
"-  c #59170B",
";  c #501F0E",
":  c #5B1C0B",
">  c #541915",
",  c #541F19",
"<  c #651D13",
"1  c #4C2405",
"2  c #4A2805",
"3  c #41250D",
"4  c #4E2509",
"5  c #432A0C",
"6  c #4D2A0C",
"7  c #532306",
"8  c #5A2106",
"9  c #522A07",
"0  c #542409",
"q  c #5B240B",
"w  c #532A0C",
"e  c #5B2A0E",
"r  c #442413",
"t  c #452A13",
"y  c #4B2B15",
"u  c #442719",
"i  c #4D2B19",
"p  c #532613",
"a  c #512C12",
"s  c #5D2C11",
"d  c #58231D",
"f  c #522C1A",
"g  c #433417",
"h  c #4D3119",
"j  c #593313",
"k  c #63250E",
"l  c #68260C",
"z  c #61280F",
"x  c #632514",
"c  c #632B12",
"v  c #682B14",
"b  c #603115",
"n  c #74331D",
"m  c #442C20",
"M  c #5F2A24",
"N  c #7C3C25",
"B  c #74392B",
"V  c #7E3E29",
"C  c #793B33",
"Z  c #7C3C3A",
"A  c #774127",
"S  c #7D4427",
"D  c #764827",
"F  c #76442A",
"G  c #7C442B",
"H  c #764D2C",
"J  c #7C4B2E",
"K  c #664131",
"L  c #7D4534",
"P  c #7C4B31",
"I  c #74453D",
"U  c #7F423F",
"Y  c #764C3E",
"T  c #7E4B3A",
"R  c #7C4C44",
"E  c #8B3526",
"W  c #853A26",
"Q  c #8C3F25",
"!  c #8E3728",
"~  c #843D2A",
"^  c #8C3C2B",
"/  c #913629",
"(  c #913B2C",
")  c #863D32",
"_  c #8C3D33",
"`  c #84432D",
"'  c #8A422D",
"]  c #82492E",
"[  c #834433",
"{  c #8D4431",
"}  c #844B32",
"|  c #8D4A34",
" . c #8E433A",
".. c #854B3B",
"X. c #8C4C39",
"o. c #944433",
"O. c #994233",
"+. c #934936",
"@. c #934539",
"#. c #944B39",
"$. c #9B4838",
"%. c #865535",
"&. c #8C5139",
"*. c #875C3E",
"=. c #8D5A3E",
"-. c #94553E",
";. c #90583F",
":. c #894F41",
">. c #804F48",
",. c #8A4C49",
"<. c #914D40",
"1. c #8E5D42",
"2. c #8B504C",
"3. c #945544",
"4. c #9A5744",
"5. c #935C42",
"6. c #9A5B45",
"7. c #9E564C",
"8. c #9E5C4A",
"9. c #885750",
"0. c #8F5A54",
"q. c #915551",
"w. c #A25E4B",
"e. c #A65E54",
"r. c #8C6143",
"t. c #936246",
"y. c #996147",
"u. c #916749",
"i. c #9C634A",
"p. c #95694C",
"a. c #9A6A4E",
"s. c #926059",
"d. c #9A625D",
"f. c #A66047",
"g. c #A4634D",
"h. c #A9674D",
"j. c #A66155",
"k. c #A96452",
"l. c #A26A51",
"z. c #A6665A",
"x. c #9A6861",
/* pixels */
"=.i.i.-.8 z -.f.4.4.7.w.7 s =.i.=.5.5.t.0 x =.i.;.5.5.t.@ 8 j.d.",
"e.4.g.y.8 q 8.k.w.w.w.e.0 q i.g.w.i.i.a.0 e 8.g.w.f.i.a.e e 3.s.",
"^ ' ] A 1 O ` W  .@.^ C 7 O ' ^ ' +.` A & % ^ ^ o.o.` N + a ..9.",
"^ } J ] 9 1 X.) ^ _ ) ..e % +.^ ^ ' G } 8 * $.^ ! ( ` } j o ..I ",
"W ` %.P 2 1 S #.~ [ <.[ w & ~ $.W ' &.J 7 : ^ $.E ^ &.] w @ ..I ",
"W ` D H 2 j G [ ~ V ) ..1 s G } ~ V H P 7 z ` | ~ ~ G P 7 @ :.I ",
"l l 7 1 + 1 @ 7 x x : : + 1 @ & e e 1 1 1 1 @ & z e w 1 7 e - # ",
"& & q 7 j e 4 7 & & x 8 j w 1 4 1 + w 6 j 6 1 1 @ 1 w 1 o e = M ",
"q k 4.6.5.=.u.1.e q 6.6.r.*.u.r.w w r.t.1.1.u.r.w w r.r.a.y.k.d.",
"8 q k.g.g.5.a.p.7 7 h.f.f.4.a.a.7 0 l.i.i.5.p.p.1 w l.i.i.-.7.q.",
"& % @.W @.` A H @ @ +.W O.^ ~ G & % $.W +.~ N H @ % | W S X.@.q.",
"d *  ._ W | F H w 8 ' Q / O.` ` x * ( ( ! o.` ] z * { ( ] [ _ Z ",
"7 z N ( ' | J P 9 e N ' ^ +.} P 7 z W ^ ' | J P 4 e N ' ] | { ,.",
"7 z N +.~ ` P H 1 e N | W ` G J 7 e N | ~ ` P J 1 e N | ] ~ ) U ",
"o & 8 & v 8 7 w + 4 7 & v 8 7 w + & : & v 8 4 w + 4 7 & 8 v < > ",
"w b e @ & o 4 s w c e @ : o 7 s e b e @ & o 4 e w c e @ @ : - , ",
"1.5.1.u.0 c 1.i.;.5.t.t.7 x 1.y.=.4.1.t.0 e 5.i.=.5.5.t.e & 8.0.",
"w.i.i.i.7 q 8.h.w.f.i.i.7 e y.g.8.i.i.a.7 q 8.h.w.w.i.a.@ 7 z.x.",
"' +.` A & % ' / o.o.` A 7 O ` ^ o.| G A : % ' ^ ( +.` N 7 0 B >.",
"W ^ ] } q * +./ ! ( ' } e & +.^ W ^ ] } q * +./ / ( ` } 1 w ..R ",
"W ' &.P 7 * ~ $.E ^ &.] 7 & ` $.W ' X.P 7 & ^ $.E ^ &.] 9 + &.R ",
"~ V D P 4 s ` { ~ ~ G J 1 j ` [ ~ V H P w c ` { W ` G J @ e C R ",
"e e 4 1 1 2 & & z e 7 1 + 1 @ 7 s e 1 2 + 1 @ & z e 4 4 9 q d , ",
"1 1 a 2 j w 1 1 @ 1 w 6 j w 4 1 @ 1 w 2 j w 4 4 @ 1 w 1 8 O * d ",
"w w r.t.r.1.u.r.w w r.t.r.=.p.r.e w r.r.r.*.u.r.w w r.r.;.l.7.d.",
"7 7 l.f.i.5.p.u.w 0 a.i.i.4.a.a.4 0 l.f.i.t.p.p.1 w l.i.a.h.j.2.",
"@ % $.W o.~ F J @ % +.W o.^ N G @ % +.W +.^ N G @ & | W ] n  .,.",
"x * ( ( ! o.` } z * ' Q / O.' ` l * o./ ! o.` ] z * ' ( ] |  .Z ",
"7 1 } G [ } G } q & | ` ' } ` } k * | ~ | ` | | * * { ` [ [ T Y ",
"s 6 L X.G T L D @ @ ] &.} ] ` S % & ] } } G J G q e } G X.L T K ",
"y 5 1 $ p $ 4 p y a 0 O 1 @ w s 1 1 w @ 1 9 1 e 1 @ e 1 $ ; h r ",
"  g r i u t i u X u y f h . 3 5 t h y t . y . y h 3 y 3 i r u m "
};
