/* XPM */
static char *result[] = {
/* columns rows colors chars-per-pixel */
"32 32 7 1 ",
"  c #1C366C",
". c #5294E2",
"X c #6F94E6",
"o c #56BCF9",
"O c #F1CFB7",
"+ c white",
"@ c None",
/* pixels */
"@@@@@@@@@@............@@@@@@@@@@",
"@@@@@@@@@@............@@@@@@@@@@",
"@@@@@@@@................@@@@@@@@",
"@@@@@@@@................@@@@@@@@",
"@@@@@@@@................@@@@@@@@",
"@@@@@@@@................@@@@@@@@",
"@@@@@@....................@@@@@@",
"@@@@@@....................@@@@@@",
"@@@@@@....................@@@@@@",
"@@@@@@....................@@@@@@",
"@@@@@@@@oooooooooooooooo@@@@@@@@",
"@@@@@@@@oooooooooooooooo@@@@@@@@",
"@@@@@@oo++++++++++++++++oo@@@@@@",
"@@@@@@oo++++++++++++++++oo@@@@@@",
"@@@@oo++++++++++++++++++++@@@@@@",
"@@@@oo++++++++++++++++++++@@@@@@",
"@@@@++oooooooooooooooooooo@@@@@@",
"@@@@++oooooooooooooooooooo@@@@@@",
"@@@@++++oooooooooooooooo++@@@@@@",
"@@@@++++oooooooooooooooo++@@@@@@",
"@@@@++oooo++++++++++++++ooOO@@@@",
"@@@@++oooo++++++++++++++ooOO@@@@",
"@@OOoo++ooooooooooooooooooOO@@@@",
"@@OOoo++ooooooooooooooooooOO@@@@",
"@@OOoo                    @@@@@@",
"@@OOoo                    @@@@@@",
"@@@@@@XXXXXXXXXXXXXXXXXX@@@@@@@@",
"@@@@@@XXXXXXXXXXXXXXXXXX@@@@@@@@",
"@@@@@@XXXXXXXX@@oo++++oo@@@@@@@@",
"@@@@@@XXXXXXXX@@oo++++oo@@@@@@@@",
"@@@@@@@@@@@@@@@@          @@@@@@",
"@@@@@@@@@@@@@@@@          @@@@@@"
};
