/* XPM */
static char *result[] = {
/* columns rows colors chars-per-pixel */
"32 32 6 1 ",
"  c black",
". c #4F2C14",
"X c #885B39",
"o c #871E51",
"O c #D78244",
"+ c None",
/* pixels */
"++++++++++++++++++++++++++++++++",
"++++++++++++++++++++++++++++++++",
"++++++++++++++++++++++++++++++++",
"++++++++++++++++++++++++++++++++",
"++++++++++++++++++++++++++++++++",
"++++++++++++++++    ++++++++++++",
"++++++++++++++++ .. ++++++++++++",
"+++++++++++++++o X.        +++++",
"++++++++++++++o  XOOOOOOXX +++++",
"++++++++++++++o OOOO  OOXXX ++++",
"++++++++++++++o OOOOOOOOOXX ++++",
"++++++++oooooo  OOOOOOOOOOX ++++",
"+++++++o       OOOOOOOOOOOX ++++",
"++++++o  OOOOOOOOOOOOO      ++++",
"++++++o OOOOOOOOOOOO  ++++++++++",
"++++++o OOOXXOOOOOOO +++++++++++",
"++++++o OOOOOOOOOOOO +++++++++++",
"++++++o OXXOOXXOOOOO +++++++++++",
"++++++o OOOOOOOOOOOO +++++++++++",
"++++++o OOOOOOOOOOO.++++++++++++",
"+++++o  OOO ++++ O.. +++++++++++",
"+++++o  ...++++++ ... ++++++++++",
"+++++o  .. +++++++... ++++++++++",
"++++++o ... +++++ .. +++++++++++",
"++++++o  .. +++++   ++++++++++++",
"+++++++o    ++++   +++++++++++++",
"++++++++ooo+++++oo++++++++++++++",
"++++++++++++++++++++++++++++++++",
"++++++++++++++++++++++++++++++++",
"++++++++++++++++++++++++++++++++",
"++++++++++++++++++++++++++++++++",
"++++++++++++++++++++++++++++++++"
};
