/* XPM */
static char *result[] = {
/* columns rows colors chars-per-pixel */
"32 32 6 1 ",
"  c black",
". c #4F2C14",
"X c #885B39",
"o c #871E51",
"O c #D78244",
"+ c None",
/* pixels */
"++++++++++++++++++++++++++++++++",
"+++++++++++++++  +++++++++++++++",
"++++++++++++++ ..+++++++++++++++",
"++++++    +   ..X+++++++++++++++",
"+++++  XXOOOOOOXX+++++++++++++++",
"+++++ XXXOO  OOOO+++++++++++++++",
"+++++ XXOOOOOOOOO ++++++++++++++",
"+++++ XOOOOOOOOOO  +++++++++++++",
"+++++ XOOOOOOOOOOO o++++++++++++",
"+++++       OOOOOO  o+++++++++++",
"++++++++++o OOOOOOO  o++++++++++",
"+++++++++++ OOOOOOOO  o+++++++++",
"+++++++++++ OOOOOOOOO  o++++++++",
"+++++++++++ OOOOOOOOOO  o+++++++",
"+++++++++++ OOOOOOOOOOO  o++++++",
"+++++++++++  OOOOOOOOOOO o++++++",
"+++++++++++o OOOOOOOOXXO  o+++++",
"+++++++++++o OO  OXXOOOOO o+++++",
"++++++++++++ ..  OOOOOOOO o+++++",
"++++++++++++ ..   OOOXXOO o+++++",
"++++++++++++ ..    OOOOOO o+++++",
"++++++++++++ ..  ......   ++++++",
"++++++++++++            o+++++++",
"++++++++++++++++ooo++ooo++++++++",
"++++++++++++++++++++++++++++++++",
"++++++++++++++++++++++++++++++++",
"++++++++++++++++++++++++++++++++",
"++++++++++++++++++++++++++++++++",
"++++++++++++++++++++++++++++++++",
"++++++++++++++++++++++++++++++++",
"++++++++++++++++++++++++++++++++",
"++++++++++++++++++++++++++++++++"
};
